<svg xmlns="http://www.w3.org/2000/svg" viewBox="0 0 512 512" width="512" height="512">
  <defs>
    <linearGradient id="a" x1="256" y1="50" x2="256" y2="462" gradientUnits="userSpaceOnUse">
      <stop offset="0" stop-color="#ff8a00"/>
      <stop offset="1" stop-color="#e52e2e"/>
    </linearGradient>
  </defs>
  <circle cx="256" cy="256" r="206" fill="url(#a)"/>
  <path fill="#FFF" d="M202.2 355.4l-23.7-36.9c-4.3-6.8-6.5-11.7-6.5-11.7h-.3s.3 5.7.3 11.8v36.9h-27V153.7h27v106.9c0 6.2.3 11.9.3 11.9h.3s2.2-5 6.5-11.8l61.2-107h29.6l-64.7 108.9 69.3 92.8zM327 198.2c40.1 0 69.9 27.9 69.9 81.4 0 .7 0 1.5-.1 2.4h-112c.3 30.4 20.9 48.4 46.2 48.4 20.9 0 33.7-12 40.4-20.1l18.4 15.9c-13.1 16.5-32.7 31.6-59 31.6-43.2 0-73.9-32.2-73.9-79.9.1-49.7 32.3-79.7 70.1-79.7zm42.2 65.6c-.9-25.3-16.5-42.1-42.1-42.1-23.1 0-40.4 16.5-43.5 42.1z"/>
</svg> 