<svg xmlns="http://www.w3.org/2000/svg" viewBox="0 0 240 234" width="2500" height="2438">
  <path fill="#330000" d="M42.5 0h155C221.3 0 240 18.7 240 42.5v149c0 23.8-18.7 42.5-42.5 42.5h-155C18.7 234 0 215.3 0 191.5v-149C0 18.7 18.7 0 42.5 0z"/>
  <path fill="#ff9a00" d="M116 140H78.8l-7.6 23.5c-.2.9-1 1.5-1.9 1.4H50.5c-1.1 0-1.4-.6-1.1-1.8l32.2-92.7c.3-1 .6-2.1 1-3.3.4-2.1.6-4.3.6-6.5-.1-.5.3-1 .8-1.1h25.9c.8 0 1.2.3 1.3.8l36.5 103c.3 1.1 0 1.6-1 1.6h-20.9c-.7.1-1.4-.4-1.6-1.1L116 140zm-31.4-20.3H110c-.7-2.1-1.4-4.6-2.3-7.2-1-2.7-1.8-5.6-2.7-8.6-1-3-1.9-6.1-2.9-9.2s-1.9-6.2-2.7-9.2c-.8-3-1.5-5.8-2.2-8.5h-.1c-.9 3.7-2 7.8-3.3 12.5-1.3 4.7-2.6 9.2-3.9 13.6-1.3 4.3-2.5 8.3-3.5 11.6zm76.6-68.8c0-4.1 1.3-7.5 4-10.1 2.7-2.6 6.2-3.9 10.6-3.9 4.3 0 7.8 1.3 10.5 3.9 2.7 2.6 4.1 6 4.1 10.1 0 4.2-1.4 7.6-4.1 10.2-2.7 2.6-6.3 3.9-10.7 3.9-4.2 0-7.7-1.3-10.4-3.9-2.8-2.6-4-6-4-10.2zm2.5 30.5c0-1.1.4-1.7 1.3-1.7h20.3c.9 0 1.3.5 1.3 1.7v72.7c0 1.1-.4 1.7-1.3 1.7h-20.2c-.9 0-1.4-.6-1.4-1.7V81.4z"/>
</svg> 