<svg xmlns="http://www.w3.org/2000/svg" viewBox="0 0 240 234" width="2500" height="2438">
  <defs>
    <style>.cls-1{fill:#001e36;}.cls-2{fill:#31a8ff;}</style>
  </defs>
  <rect class="cls-1" width="240" height="234" rx="42.5"/>
  <path class="cls-2" d="M54.042 125.628v36.463h18.708c.156.002.312.002.467 0 5.43-.043 10.285-1.464 13.316-4.547 3.209-3.277 4.754-7.535 4.754-13.645v-.031c0-5.918-1.544-10.245-4.49-13.27-2.945-3.024-7.643-4.52-12.957-4.97-.682-.058-1.367-.085-2.053-.082H54.042v.082zm14.823 11.68h.05c.182-.003.364-.003.546 0 .218 0 .434.01.647.03 2.092.108 3.649.582 4.825 1.52 1.437 1.17 2.128 2.796 2.128 5.518v.032c0 2.894-.741 4.638-2.246 5.722-1.248.897-2.924 1.378-5.085 1.465h-1.038V137.31h.173v-.002z"/>
  <path class="cls-2" d="M141.64 166.825c-2.9.002-5.792-.27-8.634-.816-2.095-.392-4.238-.989-6.388-1.793-1.206-.456-1.989-1.292-1.989-2.338 0-.635.114-1.261.342-1.852.452-1.144 1.292-1.743 2.345-1.743.554-.13 1.12.06 1.597.373.277.172 3.1 1.43 6.24 2.175a37.782 37.782 0 0 0 7.53.77c4.53 0 7.856-.886 9.986-2.665 2.022-1.684 3.11-4.128 3.11-6.992v-.032c0-4.14-2.354-6.8-8.457-9.648l-6.716-3.077c-7.7-3.526-12.454-8.406-12.454-16.296v-.032c0-4.894 1.82-9.053 5.307-12.055 3.6-3.09 8.882-4.737 15.45-4.737 2.425.018 4.846.184 7.242.5 1.934.284 3.843.72 5.708 1.305.985.29 1.656.79 2.036 1.526.302.588.462 1.24.467 1.902-.005 1.118-.624 1.792-1.93 2.124-.614.15-1.251.159-1.87.026-.398-.112-2.854-.86-5.377-1.305a37.537 37.537 0 0 0-6.504-.56c-4.08 0-7.105.812-9.027 2.41-1.809 1.51-2.728 3.54-2.728 6.112v.031c0 4.027 2.59 6.86 8.928 9.814l6.333 2.978c7.3 3.396 11.91 7.947 11.91 15.873v.031c0 5.463-1.99 9.598-5.826 12.457-3.725 2.77-9.14 4.234-15.962 4.234"/>
</svg> 