<svg xmlns="http://www.w3.org/2000/svg" viewBox="0 0 240 234" width="2500" height="2438">
  <defs>
    <style>.cls-1{fill:#00005b;}.cls-2{fill:#9999ff;}</style>
  </defs>
  <rect class="cls-1" width="240" height="234" rx="42.5"/>
  <path class="cls-2" d="M57 128.7v48.8h-22.6v-98.8h35.3c26.8 0 34.5 17 34.5 33.3 0 16.1-10.3 33.5-33.9 33.5h-13.3zm0-17.4h13.7c11.2 0 15.5-6.9 15.5-15.1 0-9.2-5.9-13.9-15.7-13.9h-13.5z"/>
  <path class="cls-2" d="M163.4 177.5h-21.8c-19.8 0-31.8-12.2-31.8-33.9 0-18.8 12-33.9 31.8-33.9h21.8v67.8zm-20-17h-1.7v-33.8h1.7c8.4 0 12.9 8.1 12.9 16.9 0 8.7-4.5 16.9-12.9 16.9z"/>
</svg> 